<?xml version="1.0"?>
<svg xmlns="http://www.w3.org/2000/svg" id="Layer" enable-background="new 0 0 64 64" height="512px" viewBox="0 0 64 64" width="512px"><g><path d="m48 8h-8c-1.104 0-2 .896-2 2s.896 2 2 2h8c2.206 0 4 1.794 4 4v32c0 2.206-1.794 4-4 4h-32c-2.206 0-4-1.794-4-4v-32c0-2.206 1.794-4 4-4h8c1.104 0 2-.896 2-2s-.896-2-2-2h-8c-4.411 0-8 3.589-8 8v32c0 4.411 3.589 8 8 8h32c4.411 0 8-3.589 8-8v-32c0-4.411-3.589-8-8-8z" data-original="#000000" class="active-path" data-old_color="#000000" fill="#FFFFFF"/><path d="m30 41.172-4.586-4.586c-.781-.781-2.047-.781-2.828 0s-.781 2.047 0 2.828l8 8c.391.391.902.586 1.414.586s1.023-.195 1.414-.586l8-8c.781-.781.781-2.047 0-2.828s-2.047-.781-2.828 0l-4.586 4.586v-23.172c0-1.104-.896-2-2-2s-2 .896-2 2z" data-original="#000000" class="active-path" data-old_color="#000000" fill="#FFFFFF"/></g> </svg>
